solid OpenSCAD_Model
  facet normal 0 0 -1
    outer loop
      vertex -6.23 0 0
      vertex -5.92508 1.92518 0
      vertex -5.92508 -1.92518 0
    endloop
  endfacet
  facet normal 0 0 -1
    outer loop
      vertex -5.92508 -1.92518 0
      vertex -5.92508 1.92518 0
      vertex -5.04018 3.6619 0
    endloop
  endfacet
  facet normal 0 0 -1
    outer loop
      vertex -5.92508 -1.92518 0
      vertex -5.04018 3.6619 0
      vertex -3.6619 5.04018 0
    endloop
  endfacet
  facet normal 0 0 -1
    outer loop
      vertex -5.92508 -1.92518 0
      vertex -3.6619 5.04018 0
      vertex -1.92518 5.92508 0
    endloop
  endfacet
  facet normal 0 0 -1
    outer loop
      vertex -5.92508 -1.92518 0
      vertex -1.92518 5.92508 0
      vertex 0 6.23 0
    endloop
  endfacet
  facet normal 0 0 -1
    outer loop
      vertex -5.92508 -1.92518 0
      vertex 0 6.23 0
      vertex 1.92518 5.92508 0
    endloop
  endfacet
  facet normal 0 0 -1
    outer loop
      vertex -5.92508 -1.92518 0
      vertex 1.92518 5.92508 0
      vertex 3.6619 5.04018 0
    endloop
  endfacet
  facet normal 0 0 -1
    outer loop
      vertex -5.92508 -1.92518 0
      vertex 3.6619 5.04018 0
      vertex 5.04018 3.6619 0
    endloop
  endfacet
  facet normal 0 0 -1
    outer loop
      vertex -5.92508 -1.92518 0
      vertex 5.04018 3.6619 0
      vertex 5.92508 1.92518 0
    endloop
  endfacet
  facet normal 0 0 -1
    outer loop
      vertex -5.92508 -1.92518 0
      vertex 5.92508 1.92518 0
      vertex 6.23 0 0
    endloop
  endfacet
  facet normal 0 0 -1
    outer loop
      vertex -5.92508 -1.92518 0
      vertex 6.23 0 0
      vertex 5.92508 -1.92518 0
    endloop
  endfacet
  facet normal 0 0 -1
    outer loop
      vertex -5.92508 -1.92518 0
      vertex 5.92508 -1.92518 0
      vertex 5.04018 -3.6619 0
    endloop
  endfacet
  facet normal 0 0 -1
    outer loop
      vertex -5.92508 -1.92518 0
      vertex 5.04018 -3.6619 0
      vertex 3.6619 -5.04018 0
    endloop
  endfacet
  facet normal 0 0 -1
    outer loop
      vertex -5.92508 -1.92518 0
      vertex 3.6619 -5.04018 0
      vertex 1.92518 -5.92508 0
    endloop
  endfacet
  facet normal 0 0 -1
    outer loop
      vertex -5.92508 -1.92518 0
      vertex 1.92518 -5.92508 0
      vertex 0 -6.23 0
    endloop
  endfacet
  facet normal 0 0 -1
    outer loop
      vertex -5.92508 -1.92518 0
      vertex 0 -6.23 0
      vertex -1.92518 -5.92508 0
    endloop
  endfacet
  facet normal 0 0 -1
    outer loop
      vertex -5.92508 -1.92518 0
      vertex -1.92518 -5.92508 0
      vertex -3.6619 -5.04018 0
    endloop
  endfacet
  facet normal 0 0 -1
    outer loop
      vertex -5.92508 -1.92518 0
      vertex -3.6619 -5.04018 0
      vertex -5.04018 -3.6619 0
    endloop
  endfacet
  facet normal -0.987688 0.156435 0
    outer loop
      vertex -6.23 0 0
      vertex -6.23 0 22.9
      vertex -5.92508 1.92518 0
    endloop
  endfacet
  facet normal -0.987688 0.156435 0
    outer loop
      vertex -5.92508 1.92518 0
      vertex -6.23 0 22.9
      vertex -5.92508 1.92518 22.9
    endloop
  endfacet
  facet normal -0.987688 -0.156435 0
    outer loop
      vertex -6.23 0 0
      vertex -5.92508 -1.92518 0
      vertex -6.23 0 22.9
    endloop
  endfacet
  facet normal -0.987688 -0.156435 0
    outer loop
      vertex -6.23 0 22.9
      vertex -5.92508 -1.92518 0
      vertex -5.92508 -1.92518 22.9
    endloop
  endfacet
  facet normal -0.891007 -0.45399 0
    outer loop
      vertex -5.92508 -1.92518 0
      vertex -5.04018 -3.6619 0
      vertex -5.92508 -1.92518 22.9
    endloop
  endfacet
  facet normal -0.891007 -0.45399 0
    outer loop
      vertex -5.92508 -1.92518 22.9
      vertex -5.04018 -3.6619 0
      vertex -5.04018 -3.6619 22.9
    endloop
  endfacet
  facet normal -0.707107 -0.707107 0
    outer loop
      vertex -5.04018 -3.6619 22.9
      vertex -5.04018 -3.6619 0
      vertex -3.6619 -5.04018 0
    endloop
  endfacet
  facet normal -0.707107 -0.707107 0
    outer loop
      vertex -3.6619 -5.04018 22.9
      vertex -5.04018 -3.6619 22.9
      vertex -3.6619 -5.04018 0
    endloop
  endfacet
  facet normal -0.45399 -0.891007 0
    outer loop
      vertex -3.6619 -5.04018 22.9
      vertex -3.6619 -5.04018 0
      vertex -1.92518 -5.92508 0
    endloop
  endfacet
  facet normal -0.45399 -0.891007 0
    outer loop
      vertex -1.92518 -5.92508 22.9
      vertex -3.6619 -5.04018 22.9
      vertex -1.92518 -5.92508 0
    endloop
  endfacet
  facet normal -0.156435 -0.987688 0
    outer loop
      vertex -1.92518 -5.92508 22.9
      vertex -1.92518 -5.92508 0
      vertex 0 -6.23 0
    endloop
  endfacet
  facet normal -0.156435 -0.987688 0
    outer loop
      vertex 0 -6.23 22.9
      vertex -1.92518 -5.92508 22.9
      vertex 0 -6.23 0
    endloop
  endfacet
  facet normal 0.156435 -0.987688 0
    outer loop
      vertex 0 -6.23 22.9
      vertex 0 -6.23 0
      vertex 1.92518 -5.92508 0
    endloop
  endfacet
  facet normal 0.156435 -0.987688 0
    outer loop
      vertex 1.92518 -5.92508 22.9
      vertex 0 -6.23 22.9
      vertex 1.92518 -5.92508 0
    endloop
  endfacet
  facet normal 0.45399 -0.891007 0
    outer loop
      vertex 1.92518 -5.92508 22.9
      vertex 1.92518 -5.92508 0
      vertex 3.6619 -5.04018 0
    endloop
  endfacet
  facet normal 0.45399 -0.891007 0
    outer loop
      vertex 3.6619 -5.04018 22.9
      vertex 1.92518 -5.92508 22.9
      vertex 3.6619 -5.04018 0
    endloop
  endfacet
  facet normal 0.707107 -0.707107 0
    outer loop
      vertex 3.6619 -5.04018 22.9
      vertex 3.6619 -5.04018 0
      vertex 5.04018 -3.6619 0
    endloop
  endfacet
  facet normal 0.707107 -0.707107 0
    outer loop
      vertex 5.04018 -3.6619 22.9
      vertex 3.6619 -5.04018 22.9
      vertex 5.04018 -3.6619 0
    endloop
  endfacet
  facet normal 0.891007 -0.45399 0
    outer loop
      vertex 5.04018 -3.6619 22.9
      vertex 5.04018 -3.6619 0
      vertex 5.92508 -1.92518 0
    endloop
  endfacet
  facet normal 0.891007 -0.45399 0
    outer loop
      vertex 5.92508 -1.92518 22.9
      vertex 5.04018 -3.6619 22.9
      vertex 5.92508 -1.92518 0
    endloop
  endfacet
  facet normal 0.987688 -0.156435 0
    outer loop
      vertex 5.92508 -1.92518 22.9
      vertex 5.92508 -1.92518 0
      vertex 6.23 0 0
    endloop
  endfacet
  facet normal 0.987688 -0.156435 0
    outer loop
      vertex 6.23 0 22.9
      vertex 5.92508 -1.92518 22.9
      vertex 6.23 0 0
    endloop
  endfacet
  facet normal 0.987688 0.156435 0
    outer loop
      vertex 6.23 0 0
      vertex 5.92508 1.92518 0
      vertex 5.92508 1.92518 22.9
    endloop
  endfacet
  facet normal 0.987688 0.156435 0
    outer loop
      vertex 6.23 0 22.9
      vertex 6.23 0 0
      vertex 5.92508 1.92518 22.9
    endloop
  endfacet
  facet normal 0.891007 0.45399 0
    outer loop
      vertex 5.92508 1.92518 0
      vertex 5.04018 3.6619 0
      vertex 5.04018 3.6619 22.9
    endloop
  endfacet
  facet normal 0.891007 0.45399 0
    outer loop
      vertex 5.92508 1.92518 22.9
      vertex 5.92508 1.92518 0
      vertex 5.04018 3.6619 22.9
    endloop
  endfacet
  facet normal 0.707107 0.707107 0
    outer loop
      vertex 3.6619 5.04018 0
      vertex 3.6619 5.04018 22.9
      vertex 5.04018 3.6619 0
    endloop
  endfacet
  facet normal 0.707107 0.707107 0
    outer loop
      vertex 5.04018 3.6619 0
      vertex 3.6619 5.04018 22.9
      vertex 5.04018 3.6619 22.9
    endloop
  endfacet
  facet normal 0.45399 0.891007 0
    outer loop
      vertex 1.92518 5.92508 0
      vertex 1.92518 5.92508 22.9
      vertex 3.6619 5.04018 0
    endloop
  endfacet
  facet normal 0.45399 0.891007 0
    outer loop
      vertex 3.6619 5.04018 0
      vertex 1.92518 5.92508 22.9
      vertex 3.6619 5.04018 22.9
    endloop
  endfacet
  facet normal 0.156435 0.987688 0
    outer loop
      vertex 0 6.23 0
      vertex 0 6.23 22.9
      vertex 1.92518 5.92508 0
    endloop
  endfacet
  facet normal 0.156435 0.987688 0
    outer loop
      vertex 1.92518 5.92508 0
      vertex 0 6.23 22.9
      vertex 1.92518 5.92508 22.9
    endloop
  endfacet
  facet normal -0.156435 0.987688 0
    outer loop
      vertex -1.92518 5.92508 0
      vertex -1.92518 5.92508 22.9
      vertex 0 6.23 0
    endloop
  endfacet
  facet normal -0.156435 0.987688 0
    outer loop
      vertex 0 6.23 0
      vertex -1.92518 5.92508 22.9
      vertex 0 6.23 22.9
    endloop
  endfacet
  facet normal -0.45399 0.891007 0
    outer loop
      vertex -3.6619 5.04018 0
      vertex -3.6619 5.04018 22.9
      vertex -1.92518 5.92508 0
    endloop
  endfacet
  facet normal -0.45399 0.891007 0
    outer loop
      vertex -1.92518 5.92508 0
      vertex -3.6619 5.04018 22.9
      vertex -1.92518 5.92508 22.9
    endloop
  endfacet
  facet normal -0.707107 0.707107 0
    outer loop
      vertex -5.04018 3.6619 0
      vertex -5.04018 3.6619 22.9
      vertex -3.6619 5.04018 0
    endloop
  endfacet
  facet normal -0.707107 0.707107 0
    outer loop
      vertex -3.6619 5.04018 0
      vertex -5.04018 3.6619 22.9
      vertex -3.6619 5.04018 22.9
    endloop
  endfacet
  facet normal -0.891007 0.45399 0
    outer loop
      vertex -5.92508 1.92518 0
      vertex -5.92508 1.92518 22.9
      vertex -5.04018 3.6619 0
    endloop
  endfacet
  facet normal -0.891007 0.45399 0
    outer loop
      vertex -5.04018 3.6619 0
      vertex -5.92508 1.92518 22.9
      vertex -5.04018 3.6619 22.9
    endloop
  endfacet
  facet normal 0 0 1
    outer loop
      vertex -5.92508 1.92518 22.9
      vertex -6.23 0 22.9
      vertex -5.92508 -1.92518 22.9
    endloop
  endfacet
  facet normal 0 0 1
    outer loop
      vertex -3.6619 -5.04018 22.9
      vertex -5.92508 1.92518 22.9
      vertex -5.04018 -3.6619 22.9
    endloop
  endfacet
  facet normal 0 0 1
    outer loop
      vertex -5.04018 -3.6619 22.9
      vertex -5.92508 1.92518 22.9
      vertex -5.92508 -1.92518 22.9
    endloop
  endfacet
  facet normal 0 0 1
    outer loop
      vertex -1.92518 -5.92508 22.9
      vertex -5.92508 1.92518 22.9
      vertex -3.6619 -5.04018 22.9
    endloop
  endfacet
  facet normal 0 0 1
    outer loop
      vertex -3.88377 -0.957263 22.9
      vertex -5.92508 1.92518 22.9
      vertex -1.92518 -5.92508 22.9
    endloop
  endfacet
  facet normal 0 0 1
    outer loop
      vertex 3.54182 -1.85889 22.9
      vertex 2.27226 -3.29194 22.9
      vertex 5.04018 -3.6619 22.9
    endloop
  endfacet
  facet normal 0 0 1
    outer loop
      vertex 2.27226 3.29194 22.9
      vertex 5.92508 1.92518 22.9
      vertex 5.04018 3.6619 22.9
    endloop
  endfacet
  facet normal 0 0 1
    outer loop
      vertex -2.99404 2.65249 22.9
      vertex -1.41842 3.74006 22.9
      vertex -5.92508 1.92518 22.9
    endloop
  endfacet
  facet normal 0 0 1
    outer loop
      vertex 0 6.23 22.9
      vertex -5.92508 1.92518 22.9
      vertex 1.92518 5.92508 22.9
    endloop
  endfacet
  facet normal 0 0 1
    outer loop
      vertex -1.92518 5.92508 22.9
      vertex -5.92508 1.92518 22.9
      vertex 0 6.23 22.9
    endloop
  endfacet
  facet normal 0 0 1
    outer loop
      vertex -3.6619 5.04018 22.9
      vertex -5.92508 1.92518 22.9
      vertex -1.92518 5.92508 22.9
    endloop
  endfacet
  facet normal 0 0 1
    outer loop
      vertex -5.04018 3.6619 22.9
      vertex -5.92508 1.92518 22.9
      vertex -3.6619 5.04018 22.9
    endloop
  endfacet
  facet normal 0 0 1
    outer loop
      vertex -2.99404 -2.65249 22.9
      vertex -3.88377 -0.957263 22.9
      vertex -1.92518 -5.92508 22.9
    endloop
  endfacet
  facet normal 0 0 1
    outer loop
      vertex -3.88377 0.957263 22.9
      vertex -2.99404 2.65249 22.9
      vertex -5.92508 1.92518 22.9
    endloop
  endfacet
  facet normal 0 0 1
    outer loop
      vertex 2.27226 -3.29194 22.9
      vertex 0.482147 -3.97083 22.9
      vertex 3.6619 -5.04018 22.9
    endloop
  endfacet
  facet normal 0 0 1
    outer loop
      vertex 2.27226 3.29194 22.9
      vertex 3.54182 1.85889 22.9
      vertex 5.92508 1.92518 22.9
    endloop
  endfacet
  facet normal 0 0 1
    outer loop
      vertex 0.482147 3.97083 22.9
      vertex 2.27226 3.29194 22.9
      vertex 5.04018 3.6619 22.9
    endloop
  endfacet
  facet normal 0 0 1
    outer loop
      vertex 1.92518 5.92508 22.9
      vertex -1.41842 3.74006 22.9
      vertex 3.6619 5.04018 22.9
    endloop
  endfacet
  facet normal 0 0 1
    outer loop
      vertex 1.92518 5.92508 22.9
      vertex -5.92508 1.92518 22.9
      vertex -1.41842 3.74006 22.9
    endloop
  endfacet
  facet normal 0 0 1
    outer loop
      vertex 4 0 22.9
      vertex 3.54182 -1.85889 22.9
      vertex 5.92508 -1.92518 22.9
    endloop
  endfacet
  facet normal 0 0 1
    outer loop
      vertex 0.482147 3.97083 22.9
      vertex 5.04018 3.6619 22.9
      vertex 3.6619 5.04018 22.9
    endloop
  endfacet
  facet normal 0 0 1
    outer loop
      vertex -1.41842 3.74006 22.9
      vertex 0.482147 3.97083 22.9
      vertex 3.6619 5.04018 22.9
    endloop
  endfacet
  facet normal 0 0 1
    outer loop
      vertex 5.92508 1.92518 22.9
      vertex 3.54182 1.85889 22.9
      vertex 6.23 0 22.9
    endloop
  endfacet
  facet normal 0 0 1
    outer loop
      vertex 6.23 0 22.9
      vertex 4 0 22.9
      vertex 5.92508 -1.92518 22.9
    endloop
  endfacet
  facet normal 0 0 1
    outer loop
      vertex 5.92508 -1.92518 22.9
      vertex 3.54182 -1.85889 22.9
      vertex 5.04018 -3.6619 22.9
    endloop
  endfacet
  facet normal 0 0 1
    outer loop
      vertex 5.04018 -3.6619 22.9
      vertex 2.27226 -3.29194 22.9
      vertex 3.6619 -5.04018 22.9
    endloop
  endfacet
  facet normal 0 0 1
    outer loop
      vertex 3.54182 1.85889 22.9
      vertex 4 0 22.9
      vertex 6.23 0 22.9
    endloop
  endfacet
  facet normal 0 0 1
    outer loop
      vertex 3.6619 -5.04018 22.9
      vertex 0.482147 -3.97083 22.9
      vertex 1.92518 -5.92508 22.9
    endloop
  endfacet
  facet normal 0 0 1
    outer loop
      vertex 1.92518 -5.92508 22.9
      vertex -1.41842 -3.74006 22.9
      vertex 0 -6.23 22.9
    endloop
  endfacet
  facet normal 0 0 1
    outer loop
      vertex 0 -6.23 22.9
      vertex -2.99404 -2.65249 22.9
      vertex -1.92518 -5.92508 22.9
    endloop
  endfacet
  facet normal 0 0 1
    outer loop
      vertex 0.482147 -3.97083 22.9
      vertex -1.41842 -3.74006 22.9
      vertex 1.92518 -5.92508 22.9
    endloop
  endfacet
  facet normal 0 0 1
    outer loop
      vertex -1.41842 -3.74006 22.9
      vertex -2.99404 -2.65249 22.9
      vertex 0 -6.23 22.9
    endloop
  endfacet
  facet normal 0 0 1
    outer loop
      vertex -3.88377 -0.957263 22.9
      vertex -3.88377 0.957263 22.9
      vertex -5.92508 1.92518 22.9
    endloop
  endfacet
  facet normal 0.885456 0.464723 0
    outer loop
      vertex -3.88377 -0.957263 22.9
      vertex -2.99404 -2.65249 22.9
      vertex -2.99404 -2.65249 3
    endloop
  endfacet
  facet normal 0.885456 0.464723 0
    outer loop
      vertex -3.88377 -0.957263 3
      vertex -3.88377 -0.957263 22.9
      vertex -2.99404 -2.65249 3
    endloop
  endfacet
  facet normal 1 0 0
    outer loop
      vertex -3.88377 0.957263 3
      vertex -3.88377 0.957263 22.9
      vertex -3.88377 -0.957263 22.9
    endloop
  endfacet
  facet normal 1 0 0
    outer loop
      vertex -3.88377 -0.957263 3
      vertex -3.88377 0.957263 3
      vertex -3.88377 -0.957263 22.9
    endloop
  endfacet
  facet normal 0.568065 0.822984 0
    outer loop
      vertex -1.41842 -3.74006 22.9
      vertex -1.41842 -3.74006 3
      vertex -2.99404 -2.65249 22.9
    endloop
  endfacet
  facet normal 0.568065 0.822984 0
    outer loop
      vertex -2.99404 -2.65249 22.9
      vertex -1.41842 -3.74006 3
      vertex -2.99404 -2.65249 3
    endloop
  endfacet
  facet normal 0.120536 0.992709 0
    outer loop
      vertex 0.482147 -3.97083 22.9
      vertex 0.482147 -3.97083 3
      vertex -1.41842 -3.74006 22.9
    endloop
  endfacet
  facet normal 0.120536 0.992709 0
    outer loop
      vertex -1.41842 -3.74006 22.9
      vertex 0.482147 -3.97083 3
      vertex -1.41842 -3.74006 3
    endloop
  endfacet
  facet normal -0.354605 0.935016 0
    outer loop
      vertex 2.27226 -3.29194 22.9
      vertex 2.27226 -3.29194 3
      vertex 0.482147 -3.97083 22.9
    endloop
  endfacet
  facet normal -0.354605 0.935016 0
    outer loop
      vertex 0.482147 -3.97083 22.9
      vertex 2.27226 -3.29194 3
      vertex 0.482147 -3.97083 3
    endloop
  endfacet
  facet normal -0.748511 0.663123 0
    outer loop
      vertex 3.54182 -1.85889 22.9
      vertex 3.54182 -1.85889 3
      vertex 2.27226 -3.29194 22.9
    endloop
  endfacet
  facet normal -0.748511 0.663123 0
    outer loop
      vertex 2.27226 -3.29194 22.9
      vertex 3.54182 -1.85889 3
      vertex 2.27226 -3.29194 3
    endloop
  endfacet
  facet normal -0.970942 0.239316 0
    outer loop
      vertex 4 0 22.9
      vertex 4 0 3
      vertex 3.54182 -1.85889 22.9
    endloop
  endfacet
  facet normal -0.970942 0.239316 0
    outer loop
      vertex 3.54182 -1.85889 22.9
      vertex 4 0 3
      vertex 3.54182 -1.85889 3
    endloop
  endfacet
  facet normal -0.970942 -0.239316 0
    outer loop
      vertex 4 0 22.9
      vertex 3.54182 1.85889 22.9
      vertex 4 0 3
    endloop
  endfacet
  facet normal -0.970942 -0.239316 0
    outer loop
      vertex 4 0 3
      vertex 3.54182 1.85889 22.9
      vertex 3.54182 1.85889 3
    endloop
  endfacet
  facet normal -0.748511 -0.663123 0
    outer loop
      vertex 3.54182 1.85889 22.9
      vertex 2.27226 3.29194 22.9
      vertex 3.54182 1.85889 3
    endloop
  endfacet
  facet normal -0.748511 -0.663123 0
    outer loop
      vertex 3.54182 1.85889 3
      vertex 2.27226 3.29194 22.9
      vertex 2.27226 3.29194 3
    endloop
  endfacet
  facet normal -0.354605 -0.935016 0
    outer loop
      vertex 2.27226 3.29194 3
      vertex 2.27226 3.29194 22.9
      vertex 0.482147 3.97083 22.9
    endloop
  endfacet
  facet normal -0.354605 -0.935016 0
    outer loop
      vertex 0.482147 3.97083 3
      vertex 2.27226 3.29194 3
      vertex 0.482147 3.97083 22.9
    endloop
  endfacet
  facet normal 0.120536 -0.992709 0
    outer loop
      vertex 0.482147 3.97083 3
      vertex 0.482147 3.97083 22.9
      vertex -1.41842 3.74006 22.9
    endloop
  endfacet
  facet normal 0.120536 -0.992709 0
    outer loop
      vertex -1.41842 3.74006 3
      vertex 0.482147 3.97083 3
      vertex -1.41842 3.74006 22.9
    endloop
  endfacet
  facet normal 0.568065 -0.822984 0
    outer loop
      vertex -1.41842 3.74006 3
      vertex -1.41842 3.74006 22.9
      vertex -2.99404 2.65249 22.9
    endloop
  endfacet
  facet normal 0.568065 -0.822984 0
    outer loop
      vertex -2.99404 2.65249 3
      vertex -1.41842 3.74006 3
      vertex -2.99404 2.65249 22.9
    endloop
  endfacet
  facet normal 0.885456 -0.464723 0
    outer loop
      vertex -2.99404 2.65249 3
      vertex -2.99404 2.65249 22.9
      vertex -3.88377 0.957263 22.9
    endloop
  endfacet
  facet normal 0.885456 -0.464723 0
    outer loop
      vertex -3.88377 0.957263 3
      vertex -2.99404 2.65249 3
      vertex -3.88377 0.957263 22.9
    endloop
  endfacet
  facet normal 0 0 1
    outer loop
      vertex -2.99404 -2.65249 3
      vertex -1.41842 -3.74006 3
      vertex 0.482147 -3.97083 3
    endloop
  endfacet
  facet normal 0 0 1
    outer loop
      vertex 3.54182 -1.85889 3
      vertex -2.99404 -2.65249 3
      vertex 2.27226 -3.29194 3
    endloop
  endfacet
  facet normal 0 0 1
    outer loop
      vertex 2.27226 -3.29194 3
      vertex -2.99404 -2.65249 3
      vertex 0.482147 -3.97083 3
    endloop
  endfacet
  facet normal 0 0 1
    outer loop
      vertex 4 0 3
      vertex -2.99404 -2.65249 3
      vertex 3.54182 -1.85889 3
    endloop
  endfacet
  facet normal 0 0 1
    outer loop
      vertex 3.54182 1.85889 3
      vertex -2.99404 -2.65249 3
      vertex 4 0 3
    endloop
  endfacet
  facet normal 0 0 1
    outer loop
      vertex 2.27226 3.29194 3
      vertex -2.99404 -2.65249 3
      vertex 3.54182 1.85889 3
    endloop
  endfacet
  facet normal 0 0 1
    outer loop
      vertex 0.482147 3.97083 3
      vertex -2.99404 -2.65249 3
      vertex 2.27226 3.29194 3
    endloop
  endfacet
  facet normal 0 0 1
    outer loop
      vertex -1.41842 3.74006 3
      vertex -2.99404 -2.65249 3
      vertex 0.482147 3.97083 3
    endloop
  endfacet
  facet normal 0 0 1
    outer loop
      vertex -2.99404 2.65249 3
      vertex -2.99404 -2.65249 3
      vertex -1.41842 3.74006 3
    endloop
  endfacet
  facet normal 0 0 1
    outer loop
      vertex -3.88377 0.957263 3
      vertex -2.99404 -2.65249 3
      vertex -2.99404 2.65249 3
    endloop
  endfacet
  facet normal 0 0 1
    outer loop
      vertex -3.88377 -0.957263 3
      vertex -2.99404 -2.65249 3
      vertex -3.88377 0.957263 3
    endloop
  endfacet
endsolid OpenSCAD_Model
