solid OpenSCAD_Model
  facet normal 0 0 -1
    outer loop
      vertex -6.33 0 0
      vertex -6.02019 1.95608 0
      vertex -6.02019 -1.95608 0
    endloop
  endfacet
  facet normal 0 0 -1
    outer loop
      vertex -6.02019 -1.95608 0
      vertex -6.02019 1.95608 0
      vertex -5.12108 3.72068 0
    endloop
  endfacet
  facet normal 0 0 -1
    outer loop
      vertex -6.02019 -1.95608 0
      vertex -5.12108 3.72068 0
      vertex -3.72068 5.12108 0
    endloop
  endfacet
  facet normal 0 0 -1
    outer loop
      vertex -6.02019 -1.95608 0
      vertex -3.72068 5.12108 0
      vertex -1.95608 6.02019 0
    endloop
  endfacet
  facet normal 0 0 -1
    outer loop
      vertex -6.02019 -1.95608 0
      vertex -1.95608 6.02019 0
      vertex 0 6.33 0
    endloop
  endfacet
  facet normal 0 0 -1
    outer loop
      vertex -6.02019 -1.95608 0
      vertex 0 6.33 0
      vertex 1.95608 6.02019 0
    endloop
  endfacet
  facet normal 0 0 -1
    outer loop
      vertex -6.02019 -1.95608 0
      vertex 1.95608 6.02019 0
      vertex 3.72068 5.12108 0
    endloop
  endfacet
  facet normal 0 0 -1
    outer loop
      vertex -6.02019 -1.95608 0
      vertex 3.72068 5.12108 0
      vertex 5.12108 3.72068 0
    endloop
  endfacet
  facet normal 0 0 -1
    outer loop
      vertex -6.02019 -1.95608 0
      vertex 5.12108 3.72068 0
      vertex 6.02019 1.95608 0
    endloop
  endfacet
  facet normal 0 0 -1
    outer loop
      vertex -6.02019 -1.95608 0
      vertex 6.02019 1.95608 0
      vertex 6.33 0 0
    endloop
  endfacet
  facet normal 0 0 -1
    outer loop
      vertex -6.02019 -1.95608 0
      vertex 6.33 0 0
      vertex 6.02019 -1.95608 0
    endloop
  endfacet
  facet normal 0 0 -1
    outer loop
      vertex -6.02019 -1.95608 0
      vertex 6.02019 -1.95608 0
      vertex 5.12108 -3.72068 0
    endloop
  endfacet
  facet normal 0 0 -1
    outer loop
      vertex -6.02019 -1.95608 0
      vertex 5.12108 -3.72068 0
      vertex 3.72068 -5.12108 0
    endloop
  endfacet
  facet normal 0 0 -1
    outer loop
      vertex -6.02019 -1.95608 0
      vertex 3.72068 -5.12108 0
      vertex 1.95608 -6.02019 0
    endloop
  endfacet
  facet normal 0 0 -1
    outer loop
      vertex -6.02019 -1.95608 0
      vertex 1.95608 -6.02019 0
      vertex 0 -6.33 0
    endloop
  endfacet
  facet normal 0 0 -1
    outer loop
      vertex -6.02019 -1.95608 0
      vertex 0 -6.33 0
      vertex -1.95608 -6.02019 0
    endloop
  endfacet
  facet normal 0 0 -1
    outer loop
      vertex -6.02019 -1.95608 0
      vertex -1.95608 -6.02019 0
      vertex -3.72068 -5.12108 0
    endloop
  endfacet
  facet normal 0 0 -1
    outer loop
      vertex -6.02019 -1.95608 0
      vertex -3.72068 -5.12108 0
      vertex -5.12108 -3.72068 0
    endloop
  endfacet
  facet normal -0.987688 0.156434 0
    outer loop
      vertex -6.33 0 0
      vertex -6.33 0 22.9
      vertex -6.02019 1.95608 0
    endloop
  endfacet
  facet normal -0.987688 0.156434 0
    outer loop
      vertex -6.02019 1.95608 0
      vertex -6.33 0 22.9
      vertex -6.02019 1.95608 22.9
    endloop
  endfacet
  facet normal -0.987688 -0.156434 0
    outer loop
      vertex -6.33 0 0
      vertex -6.02019 -1.95608 0
      vertex -6.33 0 22.9
    endloop
  endfacet
  facet normal -0.987688 -0.156434 0
    outer loop
      vertex -6.33 0 22.9
      vertex -6.02019 -1.95608 0
      vertex -6.02019 -1.95608 22.9
    endloop
  endfacet
  facet normal -0.891007 -0.45399 0
    outer loop
      vertex -6.02019 -1.95608 0
      vertex -5.12108 -3.72068 0
      vertex -6.02019 -1.95608 22.9
    endloop
  endfacet
  facet normal -0.891007 -0.45399 0
    outer loop
      vertex -6.02019 -1.95608 22.9
      vertex -5.12108 -3.72068 0
      vertex -5.12108 -3.72068 22.9
    endloop
  endfacet
  facet normal -0.707107 -0.707107 0
    outer loop
      vertex -5.12108 -3.72068 22.9
      vertex -5.12108 -3.72068 0
      vertex -3.72068 -5.12108 0
    endloop
  endfacet
  facet normal -0.707107 -0.707107 0
    outer loop
      vertex -3.72068 -5.12108 22.9
      vertex -5.12108 -3.72068 22.9
      vertex -3.72068 -5.12108 0
    endloop
  endfacet
  facet normal -0.45399 -0.891007 0
    outer loop
      vertex -3.72068 -5.12108 22.9
      vertex -3.72068 -5.12108 0
      vertex -1.95608 -6.02019 0
    endloop
  endfacet
  facet normal -0.45399 -0.891007 0
    outer loop
      vertex -1.95608 -6.02019 22.9
      vertex -3.72068 -5.12108 22.9
      vertex -1.95608 -6.02019 0
    endloop
  endfacet
  facet normal -0.156434 -0.987688 0
    outer loop
      vertex -1.95608 -6.02019 22.9
      vertex -1.95608 -6.02019 0
      vertex 0 -6.33 0
    endloop
  endfacet
  facet normal -0.156434 -0.987688 0
    outer loop
      vertex 0 -6.33 22.9
      vertex -1.95608 -6.02019 22.9
      vertex 0 -6.33 0
    endloop
  endfacet
  facet normal 0.156434 -0.987688 0
    outer loop
      vertex 0 -6.33 22.9
      vertex 0 -6.33 0
      vertex 1.95608 -6.02019 0
    endloop
  endfacet
  facet normal 0.156434 -0.987688 0
    outer loop
      vertex 1.95608 -6.02019 22.9
      vertex 0 -6.33 22.9
      vertex 1.95608 -6.02019 0
    endloop
  endfacet
  facet normal 0.45399 -0.891007 0
    outer loop
      vertex 1.95608 -6.02019 22.9
      vertex 1.95608 -6.02019 0
      vertex 3.72068 -5.12108 0
    endloop
  endfacet
  facet normal 0.45399 -0.891007 0
    outer loop
      vertex 3.72068 -5.12108 22.9
      vertex 1.95608 -6.02019 22.9
      vertex 3.72068 -5.12108 0
    endloop
  endfacet
  facet normal 0.707107 -0.707107 0
    outer loop
      vertex 3.72068 -5.12108 22.9
      vertex 3.72068 -5.12108 0
      vertex 5.12108 -3.72068 0
    endloop
  endfacet
  facet normal 0.707107 -0.707107 0
    outer loop
      vertex 5.12108 -3.72068 22.9
      vertex 3.72068 -5.12108 22.9
      vertex 5.12108 -3.72068 0
    endloop
  endfacet
  facet normal 0.891007 -0.45399 0
    outer loop
      vertex 5.12108 -3.72068 22.9
      vertex 5.12108 -3.72068 0
      vertex 6.02019 -1.95608 0
    endloop
  endfacet
  facet normal 0.891007 -0.45399 0
    outer loop
      vertex 6.02019 -1.95608 22.9
      vertex 5.12108 -3.72068 22.9
      vertex 6.02019 -1.95608 0
    endloop
  endfacet
  facet normal 0.987688 -0.156434 0
    outer loop
      vertex 6.02019 -1.95608 22.9
      vertex 6.02019 -1.95608 0
      vertex 6.33 0 0
    endloop
  endfacet
  facet normal 0.987688 -0.156434 0
    outer loop
      vertex 6.33 0 22.9
      vertex 6.02019 -1.95608 22.9
      vertex 6.33 0 0
    endloop
  endfacet
  facet normal 0.987688 0.156434 0
    outer loop
      vertex 6.33 0 0
      vertex 6.02019 1.95608 0
      vertex 6.02019 1.95608 22.9
    endloop
  endfacet
  facet normal 0.987688 0.156434 0
    outer loop
      vertex 6.33 0 22.9
      vertex 6.33 0 0
      vertex 6.02019 1.95608 22.9
    endloop
  endfacet
  facet normal 0.891007 0.45399 0
    outer loop
      vertex 6.02019 1.95608 0
      vertex 5.12108 3.72068 0
      vertex 5.12108 3.72068 22.9
    endloop
  endfacet
  facet normal 0.891007 0.45399 0
    outer loop
      vertex 6.02019 1.95608 22.9
      vertex 6.02019 1.95608 0
      vertex 5.12108 3.72068 22.9
    endloop
  endfacet
  facet normal 0.707107 0.707107 0
    outer loop
      vertex 3.72068 5.12108 0
      vertex 3.72068 5.12108 22.9
      vertex 5.12108 3.72068 0
    endloop
  endfacet
  facet normal 0.707107 0.707107 0
    outer loop
      vertex 5.12108 3.72068 0
      vertex 3.72068 5.12108 22.9
      vertex 5.12108 3.72068 22.9
    endloop
  endfacet
  facet normal 0.45399 0.891007 0
    outer loop
      vertex 1.95608 6.02019 0
      vertex 1.95608 6.02019 22.9
      vertex 3.72068 5.12108 0
    endloop
  endfacet
  facet normal 0.45399 0.891007 0
    outer loop
      vertex 3.72068 5.12108 0
      vertex 1.95608 6.02019 22.9
      vertex 3.72068 5.12108 22.9
    endloop
  endfacet
  facet normal 0.156434 0.987688 0
    outer loop
      vertex 0 6.33 0
      vertex 0 6.33 22.9
      vertex 1.95608 6.02019 0
    endloop
  endfacet
  facet normal 0.156434 0.987688 0
    outer loop
      vertex 1.95608 6.02019 0
      vertex 0 6.33 22.9
      vertex 1.95608 6.02019 22.9
    endloop
  endfacet
  facet normal -0.156434 0.987688 0
    outer loop
      vertex -1.95608 6.02019 0
      vertex -1.95608 6.02019 22.9
      vertex 0 6.33 0
    endloop
  endfacet
  facet normal -0.156434 0.987688 0
    outer loop
      vertex 0 6.33 0
      vertex -1.95608 6.02019 22.9
      vertex 0 6.33 22.9
    endloop
  endfacet
  facet normal -0.45399 0.891007 0
    outer loop
      vertex -3.72068 5.12108 0
      vertex -3.72068 5.12108 22.9
      vertex -1.95608 6.02019 0
    endloop
  endfacet
  facet normal -0.45399 0.891007 0
    outer loop
      vertex -1.95608 6.02019 0
      vertex -3.72068 5.12108 22.9
      vertex -1.95608 6.02019 22.9
    endloop
  endfacet
  facet normal -0.707107 0.707107 0
    outer loop
      vertex -5.12108 3.72068 0
      vertex -5.12108 3.72068 22.9
      vertex -3.72068 5.12108 0
    endloop
  endfacet
  facet normal -0.707107 0.707107 0
    outer loop
      vertex -3.72068 5.12108 0
      vertex -5.12108 3.72068 22.9
      vertex -3.72068 5.12108 22.9
    endloop
  endfacet
  facet normal -0.891007 0.45399 0
    outer loop
      vertex -6.02019 1.95608 0
      vertex -6.02019 1.95608 22.9
      vertex -5.12108 3.72068 0
    endloop
  endfacet
  facet normal -0.891007 0.45399 0
    outer loop
      vertex -5.12108 3.72068 0
      vertex -6.02019 1.95608 22.9
      vertex -5.12108 3.72068 22.9
    endloop
  endfacet
  facet normal 0 0 1
    outer loop
      vertex -6.02019 1.95608 22.9
      vertex -6.33 0 22.9
      vertex -6.02019 -1.95608 22.9
    endloop
  endfacet
  facet normal 0 0 1
    outer loop
      vertex -3.72068 -5.12108 22.9
      vertex -6.02019 1.95608 22.9
      vertex -5.12108 -3.72068 22.9
    endloop
  endfacet
  facet normal 0 0 1
    outer loop
      vertex -5.12108 -3.72068 22.9
      vertex -6.02019 1.95608 22.9
      vertex -6.02019 -1.95608 22.9
    endloop
  endfacet
  facet normal 0 0 1
    outer loop
      vertex -1.95608 -6.02019 22.9
      vertex -6.02019 1.95608 22.9
      vertex -3.72068 -5.12108 22.9
    endloop
  endfacet
  facet normal 0 0 1
    outer loop
      vertex -4.00931 -1.93078 22.9
      vertex -6.02019 1.95608 22.9
      vertex -1.95608 -6.02019 22.9
    endloop
  endfacet
  facet normal 0 0 1
    outer loop
      vertex 4.00931 1.93078 22.9
      vertex 4.45 0 22.9
      vertex 6.33 0 22.9
    endloop
  endfacet
  facet normal 0 0 1
    outer loop
      vertex 2.77453 3.47915 22.9
      vertex 6.02019 1.95608 22.9
      vertex 5.12108 3.72068 22.9
    endloop
  endfacet
  facet normal 0 0 1
    outer loop
      vertex 0.990218 4.33843 22.9
      vertex 2.77453 3.47915 22.9
      vertex 3.72068 5.12108 22.9
    endloop
  endfacet
  facet normal 0 0 1
    outer loop
      vertex -0.990218 4.33843 22.9
      vertex 0.990218 4.33843 22.9
      vertex 3.72068 5.12108 22.9
    endloop
  endfacet
  facet normal 0 0 1
    outer loop
      vertex 0 6.33 22.9
      vertex -6.02019 1.95608 22.9
      vertex 1.95608 6.02019 22.9
    endloop
  endfacet
  facet normal 0 0 1
    outer loop
      vertex -1.95608 6.02019 22.9
      vertex -6.02019 1.95608 22.9
      vertex 0 6.33 22.9
    endloop
  endfacet
  facet normal 0 0 1
    outer loop
      vertex -3.72068 5.12108 22.9
      vertex -6.02019 1.95608 22.9
      vertex -1.95608 6.02019 22.9
    endloop
  endfacet
  facet normal 0 0 1
    outer loop
      vertex -5.12108 3.72068 22.9
      vertex -6.02019 1.95608 22.9
      vertex -3.72068 5.12108 22.9
    endloop
  endfacet
  facet normal 0 0 1
    outer loop
      vertex -2.77453 -3.47915 22.9
      vertex -4.00931 -1.93078 22.9
      vertex -1.95608 -6.02019 22.9
    endloop
  endfacet
  facet normal 0 0 1
    outer loop
      vertex 4.00931 -1.93078 22.9
      vertex 2.77453 -3.47915 22.9
      vertex 5.12108 -3.72068 22.9
    endloop
  endfacet
  facet normal 0 0 1
    outer loop
      vertex 4.45 0 22.9
      vertex 4.00931 -1.93078 22.9
      vertex 6.02019 -1.95608 22.9
    endloop
  endfacet
  facet normal 0 0 1
    outer loop
      vertex 1.95608 6.02019 22.9
      vertex -6.02019 1.95608 22.9
      vertex -2.77453 3.47915 22.9
    endloop
  endfacet
  facet normal 0 0 1
    outer loop
      vertex 1.95608 6.02019 22.9
      vertex -0.990218 4.33843 22.9
      vertex 3.72068 5.12108 22.9
    endloop
  endfacet
  facet normal 0 0 1
    outer loop
      vertex 1.95608 6.02019 22.9
      vertex -2.77453 3.47915 22.9
      vertex -0.990218 4.33843 22.9
    endloop
  endfacet
  facet normal 0 0 1
    outer loop
      vertex 3.72068 5.12108 22.9
      vertex 2.77453 3.47915 22.9
      vertex 5.12108 3.72068 22.9
    endloop
  endfacet
  facet normal 0 0 1
    outer loop
      vertex 2.77453 3.47915 22.9
      vertex 4.00931 1.93078 22.9
      vertex 6.02019 1.95608 22.9
    endloop
  endfacet
  facet normal 0 0 1
    outer loop
      vertex 6.02019 1.95608 22.9
      vertex 4.00931 1.93078 22.9
      vertex 6.33 0 22.9
    endloop
  endfacet
  facet normal 0 0 1
    outer loop
      vertex 6.33 0 22.9
      vertex 4.45 0 22.9
      vertex 6.02019 -1.95608 22.9
    endloop
  endfacet
  facet normal 0 0 1
    outer loop
      vertex 6.02019 -1.95608 22.9
      vertex 4.00931 -1.93078 22.9
      vertex 5.12108 -3.72068 22.9
    endloop
  endfacet
  facet normal 0 0 1
    outer loop
      vertex 0.990218 -4.33843 22.9
      vertex -0.990218 -4.33843 22.9
      vertex 1.95608 -6.02019 22.9
    endloop
  endfacet
  facet normal 0 0 1
    outer loop
      vertex 5.12108 -3.72068 22.9
      vertex 2.77453 -3.47915 22.9
      vertex 3.72068 -5.12108 22.9
    endloop
  endfacet
  facet normal 0 0 1
    outer loop
      vertex -4.00931 1.93078 22.9
      vertex -2.77453 3.47915 22.9
      vertex -6.02019 1.95608 22.9
    endloop
  endfacet
  facet normal 0 0 1
    outer loop
      vertex 3.72068 -5.12108 22.9
      vertex 0.990218 -4.33843 22.9
      vertex 1.95608 -6.02019 22.9
    endloop
  endfacet
  facet normal 0 0 1
    outer loop
      vertex 1.95608 -6.02019 22.9
      vertex -0.990218 -4.33843 22.9
      vertex 0 -6.33 22.9
    endloop
  endfacet
  facet normal 0 0 1
    outer loop
      vertex 0 -6.33 22.9
      vertex -2.77453 -3.47915 22.9
      vertex -1.95608 -6.02019 22.9
    endloop
  endfacet
  facet normal 0 0 1
    outer loop
      vertex -4.00931 -1.93078 22.9
      vertex -4.45 0 22.9
      vertex -6.02019 1.95608 22.9
    endloop
  endfacet
  facet normal 0 0 1
    outer loop
      vertex 2.77453 -3.47915 22.9
      vertex 0.990218 -4.33843 22.9
      vertex 3.72068 -5.12108 22.9
    endloop
  endfacet
  facet normal 0 0 1
    outer loop
      vertex -0.990218 -4.33843 22.9
      vertex -2.77453 -3.47915 22.9
      vertex 0 -6.33 22.9
    endloop
  endfacet
  facet normal 0 0 1
    outer loop
      vertex -4.45 0 22.9
      vertex -4.00931 1.93078 22.9
      vertex -6.02019 1.95608 22.9
    endloop
  endfacet
  facet normal 0.781832 0.62349 0
    outer loop
      vertex -4.00931 -1.93078 22.9
      vertex -2.77453 -3.47915 22.9
      vertex -2.77453 -3.47915 2
    endloop
  endfacet
  facet normal 0.781832 0.62349 0
    outer loop
      vertex -4.00931 -1.93078 2
      vertex -4.00931 -1.93078 22.9
      vertex -2.77453 -3.47915 2
    endloop
  endfacet
  facet normal 0.974928 0.222521 0
    outer loop
      vertex -4.45 0 22.9
      vertex -4.00931 -1.93078 22.9
      vertex -4.00931 -1.93078 2
    endloop
  endfacet
  facet normal 0.974928 0.222521 0
    outer loop
      vertex -4.45 0 2
      vertex -4.45 0 22.9
      vertex -4.00931 -1.93078 2
    endloop
  endfacet
  facet normal 0.433884 0.900969 0
    outer loop
      vertex -0.990218 -4.33843 22.9
      vertex -0.990218 -4.33843 2
      vertex -2.77453 -3.47915 22.9
    endloop
  endfacet
  facet normal 0.433884 0.900969 0
    outer loop
      vertex -2.77453 -3.47915 22.9
      vertex -0.990218 -4.33843 2
      vertex -2.77453 -3.47915 2
    endloop
  endfacet
  facet normal 0 1 0
    outer loop
      vertex 0.990218 -4.33843 22.9
      vertex 0.990218 -4.33843 2
      vertex -0.990218 -4.33843 22.9
    endloop
  endfacet
  facet normal 0 1 0
    outer loop
      vertex -0.990218 -4.33843 22.9
      vertex 0.990218 -4.33843 2
      vertex -0.990218 -4.33843 2
    endloop
  endfacet
  facet normal -0.433884 0.900969 0
    outer loop
      vertex 2.77453 -3.47915 22.9
      vertex 2.77453 -3.47915 2
      vertex 0.990218 -4.33843 22.9
    endloop
  endfacet
  facet normal -0.433884 0.900969 0
    outer loop
      vertex 0.990218 -4.33843 22.9
      vertex 2.77453 -3.47915 2
      vertex 0.990218 -4.33843 2
    endloop
  endfacet
  facet normal -0.781832 0.62349 0
    outer loop
      vertex 4.00931 -1.93078 22.9
      vertex 4.00931 -1.93078 2
      vertex 2.77453 -3.47915 22.9
    endloop
  endfacet
  facet normal -0.781832 0.62349 0
    outer loop
      vertex 2.77453 -3.47915 22.9
      vertex 4.00931 -1.93078 2
      vertex 2.77453 -3.47915 2
    endloop
  endfacet
  facet normal -0.974928 0.222521 0
    outer loop
      vertex 4.45 0 22.9
      vertex 4.45 0 2
      vertex 4.00931 -1.93078 22.9
    endloop
  endfacet
  facet normal -0.974928 0.222521 0
    outer loop
      vertex 4.00931 -1.93078 22.9
      vertex 4.45 0 2
      vertex 4.00931 -1.93078 2
    endloop
  endfacet
  facet normal -0.974928 -0.222521 0
    outer loop
      vertex 4.45 0 22.9
      vertex 4.00931 1.93078 22.9
      vertex 4.45 0 2
    endloop
  endfacet
  facet normal -0.974928 -0.222521 0
    outer loop
      vertex 4.45 0 2
      vertex 4.00931 1.93078 22.9
      vertex 4.00931 1.93078 2
    endloop
  endfacet
  facet normal -0.781832 -0.62349 0
    outer loop
      vertex 4.00931 1.93078 22.9
      vertex 2.77453 3.47915 22.9
      vertex 4.00931 1.93078 2
    endloop
  endfacet
  facet normal -0.781832 -0.62349 0
    outer loop
      vertex 4.00931 1.93078 2
      vertex 2.77453 3.47915 22.9
      vertex 2.77453 3.47915 2
    endloop
  endfacet
  facet normal -0.433884 -0.900969 0
    outer loop
      vertex 2.77453 3.47915 2
      vertex 2.77453 3.47915 22.9
      vertex 0.990218 4.33843 22.9
    endloop
  endfacet
  facet normal -0.433884 -0.900969 0
    outer loop
      vertex 0.990218 4.33843 2
      vertex 2.77453 3.47915 2
      vertex 0.990218 4.33843 22.9
    endloop
  endfacet
  facet normal 0 -1 0
    outer loop
      vertex 0.990218 4.33843 2
      vertex 0.990218 4.33843 22.9
      vertex -0.990218 4.33843 22.9
    endloop
  endfacet
  facet normal 0 -1 0
    outer loop
      vertex -0.990218 4.33843 2
      vertex 0.990218 4.33843 2
      vertex -0.990218 4.33843 22.9
    endloop
  endfacet
  facet normal 0.433884 -0.900969 0
    outer loop
      vertex -0.990218 4.33843 2
      vertex -0.990218 4.33843 22.9
      vertex -2.77453 3.47915 22.9
    endloop
  endfacet
  facet normal 0.433884 -0.900969 0
    outer loop
      vertex -2.77453 3.47915 2
      vertex -0.990218 4.33843 2
      vertex -2.77453 3.47915 22.9
    endloop
  endfacet
  facet normal 0.781832 -0.62349 0
    outer loop
      vertex -2.77453 3.47915 2
      vertex -2.77453 3.47915 22.9
      vertex -4.00931 1.93078 22.9
    endloop
  endfacet
  facet normal 0.781832 -0.62349 0
    outer loop
      vertex -4.00931 1.93078 2
      vertex -2.77453 3.47915 2
      vertex -4.00931 1.93078 22.9
    endloop
  endfacet
  facet normal 0.974928 -0.222521 0
    outer loop
      vertex -4.00931 1.93078 2
      vertex -4.00931 1.93078 22.9
      vertex -4.45 0 22.9
    endloop
  endfacet
  facet normal 0.974928 -0.222521 0
    outer loop
      vertex -4.45 0 2
      vertex -4.00931 1.93078 2
      vertex -4.45 0 22.9
    endloop
  endfacet
  facet normal 0 0 1
    outer loop
      vertex -4.00931 -1.93078 2
      vertex -2.77453 -3.47915 2
      vertex -0.990218 -4.33843 2
    endloop
  endfacet
  facet normal 0 0 1
    outer loop
      vertex 2.77453 -3.47915 2
      vertex -4.00931 -1.93078 2
      vertex 0.990218 -4.33843 2
    endloop
  endfacet
  facet normal 0 0 1
    outer loop
      vertex 0.990218 -4.33843 2
      vertex -4.00931 -1.93078 2
      vertex -0.990218 -4.33843 2
    endloop
  endfacet
  facet normal 0 0 1
    outer loop
      vertex 4.00931 -1.93078 2
      vertex -4.00931 -1.93078 2
      vertex 2.77453 -3.47915 2
    endloop
  endfacet
  facet normal 0 0 1
    outer loop
      vertex 4.45 0 2
      vertex -4.00931 -1.93078 2
      vertex 4.00931 -1.93078 2
    endloop
  endfacet
  facet normal 0 0 1
    outer loop
      vertex 4.00931 1.93078 2
      vertex -4.00931 -1.93078 2
      vertex 4.45 0 2
    endloop
  endfacet
  facet normal 0 0 1
    outer loop
      vertex 2.77453 3.47915 2
      vertex -4.00931 -1.93078 2
      vertex 4.00931 1.93078 2
    endloop
  endfacet
  facet normal 0 0 1
    outer loop
      vertex 0.990218 4.33843 2
      vertex -4.00931 -1.93078 2
      vertex 2.77453 3.47915 2
    endloop
  endfacet
  facet normal 0 0 1
    outer loop
      vertex -0.990218 4.33843 2
      vertex -4.00931 -1.93078 2
      vertex 0.990218 4.33843 2
    endloop
  endfacet
  facet normal 0 0 1
    outer loop
      vertex -2.77453 3.47915 2
      vertex -4.00931 -1.93078 2
      vertex -0.990218 4.33843 2
    endloop
  endfacet
  facet normal 0 0 1
    outer loop
      vertex -4.00931 1.93078 2
      vertex -4.00931 -1.93078 2
      vertex -2.77453 3.47915 2
    endloop
  endfacet
  facet normal 0 0 1
    outer loop
      vertex -4.45 0 2
      vertex -4.00931 -1.93078 2
      vertex -4.00931 1.93078 2
    endloop
  endfacet
endsolid OpenSCAD_Model
